<?xml version="1.0" encoding="UTF-8"?>
<svg id="Layer_1" data-name="Layer 1" xmlns="http://www.w3.org/2000/svg" viewBox="0 0 400 400">
  <defs>
    <style>
      .cls-1 {
        fill: rgba(255, 255, 255, 0.85);
      }
    </style>
  </defs>
  <path d="M183.99,163c.55-8.91-14.98-4.36-16.99-5.43-1.45-.77-4.53-8.33-6.56-10.51-3.08-3.31-11.49-7.25-15.44-3.55,7.68,2.17,10.45,17.64,16.02,19.97,7.23,3.04,15.48-4.08,22.97-.48ZM132.65,151.35c-8.46-7.89-27.27-7.43-37.65-3.85,4.76,3.46,11.79,3.25,17.52,5.48,18.81,7.31,15.5,19.16,23.62,32.38,7.42,12.08,18.46,3.48,28.36,2.66,4.46-.37,8.19.53,12.49.98-3.12-9.18-15.63-8.18-23.53-8.04-3.11.06-5.15,2.01-8.02.12-5.63-3.71-5-22.46-12.79-29.73ZM182,205.99c-1.19-5.97-11.43-8.86-16.55-9.02-9.02-.28-21.4,8.16-29.5,5.57-6.4-2.04-9.56-19.66-13.12-25.87-8.13-14.2-34.99-18.81-48.81-11.16l14.67,5.31c18.07,6.68,25.91,25.65,38.28,37.72,16.07,15.68,37.18-.99,55.04-2.55ZM276.76,175.24c-17.2-9.05-45.38-1.87-40.31,21.82,3.15,14.71,24.53,13.05,28.33,20.7,6.9,13.92-18.97,10.39-25.17,5.32-9.13,10.47-4.39,16.3,8.01,17.81,20.24,2.46,36.22-3.07,33.42-26.41-1.82-15.18-28.1-14.87-29.04-23.01-.67-5.81,6.82-6.93,11.27-6.23,3.34.52,8.57,4.25,11.75,2.28,2.61-1.61,4.18-9.83,1.75-12.29ZM214.71,173.21c-1.12.32-1.99,1.4-2.77,2.23l-.94,62.06,1.64,2.36,13.95-.8.39-1.58.02-61.98c-.11-3.64-9.85-2.98-12.29-2.29ZM289.5,240h32c.38,0,6.17-2.71,6.86-3.14,11.47-7.2,10.16-27.6-3.35-32.37l6.42-6.56c5.34-11.03.64-22.82-12.18-24.66-3.9-.56-26.88-.9-28.84.64-1.1.87-1.43,2.21-1.45,3.55.76,20.15-.6,40.39-.54,60.5,0,1.17.07,1.29,1.09,2.04ZM96.58,193.42c-8.1-6.46-21.46-14.04-31.6-9.73-13.16,58.83,57.48,99.01,101.07,54.86,2.41-2.45,15.17-19.42,12.95-21.54-11.23-.33-21.44,6.52-32.51,6.98-25.66,1.06-33.06-17.14-49.91-30.57Z"/>
  <path class="cls-1" d="M96.58,193.42c16.85,13.43,24.25,31.63,49.91,30.57,11.07-.46,21.28-7.31,32.51-6.98,2.22,2.12-10.53,19.1-12.95,21.54-43.59,44.16-114.23,3.97-101.07-54.86,10.14-4.31,23.5,3.27,31.6,9.73Z"/>
  <path class="cls-1" d="M289.5,240c-1.02-.75-1.08-.87-1.09-2.04-.06-20.12,1.3-40.35.54-60.5.02-1.34.35-2.68,1.45-3.55,1.95-1.54,24.94-1.2,28.84-.64,12.83,1.84,17.52,13.63,12.18,24.66l-6.42,6.56c13.5,4.77,14.82,25.17,3.35,32.37-.69.43-6.48,3.14-6.86,3.14h-32ZM304,200c9.92.37,18.1-4.74,11.02-14.52l-11.02-.48v15ZM317.77,225.76c5.87-10.14-2.61-16.31-12.62-14.62l-1.15,15.86,13.77-1.24Z"/>
  <path class="cls-1" d="M276.76,175.24c2.43,2.45.86,10.67-1.75,12.29-3.18,1.97-8.42-1.76-11.75-2.28-4.45-.7-11.94.42-11.27,6.23.94,8.14,27.22,7.82,29.04,23.01,2.8,23.34-13.17,28.88-33.42,26.41-12.39-1.51-17.14-7.34-8.01-17.81,6.2,5.07,32.08,8.59,25.17-5.32-3.8-7.65-25.18-5.99-28.33-20.7-5.07-23.69,23.12-30.88,40.31-21.82Z"/>
  <path class="cls-1" d="M182,205.99c-17.86,1.56-38.97,18.24-55.04,2.55-12.37-12.07-20.2-31.04-38.28-37.72l-14.67-5.31c13.82-7.65,40.68-3.03,48.81,11.16,3.56,6.21,6.72,23.83,13.12,25.87,8.1,2.59,20.49-5.86,29.5-5.57,5.12.16,15.36,3.05,16.55,9.02Z"/>
  <path class="cls-1" d="M214.71,173.21c2.44-.7,12.18-1.35,12.29,2.29l-.02,61.98-.39,1.58-13.95.8-1.64-2.36.94-62.06c.78-.83,1.65-1.91,2.77-2.23Z"/>
  <path class="cls-1" d="M132.65,151.35c7.79,7.26,7.16,26.02,12.79,29.73,2.87,1.89,4.91-.07,8.02-.12,7.91-.14,20.41-1.13,23.53,8.04-4.3-.45-8.03-1.35-12.49-.98-9.9.82-20.94,9.42-28.36-2.66-8.12-13.22-4.8-25.07-23.62-32.38-5.73-2.22-12.76-2.02-17.52-5.48,10.38-3.58,29.19-4.04,37.65,3.85Z"/>
  <path class="cls-1" d="M183.99,163c-7.5-3.6-15.74,3.52-22.97.48-5.56-2.34-8.34-17.8-16.02-19.97,3.95-3.7,12.35.24,15.44,3.55,2.03,2.18,5.11,9.74,6.56,10.51,2.01,1.07,17.54-3.49,16.99,5.43Z"/>
  <path d="M317.77,225.76l-13.77,1.24,1.15-15.86c10.01-1.69,18.5,4.48,12.62,14.62Z"/>
  <path d="M304,200v-15l11.02.48c7.09,9.77-1.09,14.89-11.02,14.52Z"/>
</svg>
