<?xml version="1.0" encoding="UTF-8"?>
<svg id="Layer_1" data-name="Layer 1" xmlns="http://www.w3.org/2000/svg" viewBox="0 0 720 719">
  <defs>
    <style>
      .cls-1 {
        fill: rgba(255, 255, 255, 0.85);
      }
    </style>
  </defs>
  <!-- Simplified JNAFAU logo optimized for small display sizes -->
  <!-- Outer circle -->
  <path class="cls-1" d="M559.42,158.58c142.1,154.58,55.88,407.11-150.23,442.11C197.23,636.68,29.99,419.54,122.82,224.32,203.7,54.25,431.49,19.42,559.42,158.58ZM534.42,532.42c150.79-134.54,98.16-383.04-94.9-441.44C247.96,33.04,67.19,202.34,111.31,397.19c42.84,189.18,277.47,265.16,423.1,135.23Z"/>
  <!-- Central emblem -->
  <circle class="cls-1" cx="360" cy="359.5" r="120" opacity="0.3"/>
  <!-- Inner geometric pattern -->
  <path class="cls-1" d="M360,259.5 L380,300 L420,310 L380,340 L380,380 L360,360 L340,380 L340,340 L300,310 L340,300 Z" opacity="0.5"/>
</svg>
