<?xml version="1.0" encoding="UTF-8"?>
<svg id="Layer_1" data-name="Layer 1" xmlns="http://www.w3.org/2000/svg" viewBox="0 0 720 719">
  <defs>
    <style>
      .cls-1 {
        fill: rgba(255, 255, 255, 0.85);
      }
    </style>
  </defs>
  <path class="cls-1" d="M559.42,158.58C431.49,19.42,203.7,54.25,122.82,224.32c-92.83,195.22,74.4,412.36,286.37,376.37,206.11-35,292.33-287.53,150.23-442.11ZM246.99,618c3.44-3.89-13.5-8.42-15.98-9.51-3.34-1.47-18.76-8.07-20.09-9.91-3.38-4.66,3.22-21.51-11.92-21.57-1.49,7.12,2.76,4.59,6.38,7.11,2.97,2.08,5.37,12.29,1.13,12.62-3.15.25-25.38-14.43-29.51-17.26-1-1.12-2.78.21-3,1.03-1.15,4.34,7.95,4.05,6.98,8.95-1.57,3.58-9.35-.15-9.99.54-1.6,9.37,2.15,18.28,12,20.01l-1.99,5.51c3.05,6.05,3.42,3.53,5.76-.22,1.92-3.08,8.25-17.66,10.86-18.15l7.44,3.46-10.98,22.06c-.32,2.14,4.8,4.8,5.8,1.74l10.59-21.26,11.39,6.49c-.72,2.1-2.31,7.8-4.47,8.15-1.86.31-4.62-2.33-6.4.74,5.13,16.96,12.85,1.98,15.06-7.49,2.64-.18,10.08,2.28,9.78,5.28l-8.9,22.12,4.54,2.57,9-23.03c1.26-2.37,6.11.48,6.52.02ZM553,580.01c-1.73-.26-3.13.19-4.73.77-6.87,2.47-19.6,11.82-27.25,15.75-19.64,10.1-43.45,19.64-64.58,25.42-2.61.71-9.06,2.79-11.16,2.88-2.5.11-4.24-6.52-5.84-8.75-3.82-5.32-9.91-8.87-15.41-3.57l2.08,3.42c5.72-2.46,11.44-3.33,12.89,4.08-4.54-.1-10.14-2.64-14.38.11-1.4.91-2.03,1.17-1.14,2.91,2.12,4.17,4.67-.19,7.23-.81,3.52-.85,10.22-1.02,10.29,3.79l-44.99,7.01c1.53,9.94,22.39-5.26,20.41,6.05-23.43-1.65-18.72,20.09,1.97,15.01,2.43.76.54,7.83,6.61,5.93-1.37-8.3-3.5-17.99,8-18l-1.93,10.4,4.39,2.59c7.1-11.03-1.79-20.4-13.45-13.99l-.94-6.38c.71-2.39,17.59-4.22,20.93-4.62l4.88,23.43,5.11.57-5.87-24.42c.35-1.4,7.84-3.7,9.41-3.66,1.97.04,1.86,2.52,4.09,3.96,3.33,2.15,10.12.96,6.4,5.64-3.86.4-12.73,1.49-6.96,5.93,3.69,2.85,4.03.16,6.69-.27,6.73-1.11,9.85,5.3,16.25,4.82v-5.01c-2.28.16-10.25-.36-10.95-2.6-.16-4,4.78-7.27,4.97-11,.17-3.35-3.74-3.9-3.02-7.39l6.97-.98,7.13,22.87,5.9.1-8.92-24.39,28.52-12.57c7.13-.44-.84,8.35-4.12,8.95-4.68.85-10.04-1.3-12.96,5.03-4.03,8.74,10.45,15.19,17.49,14.53l.98-3.54c-5,.61-14.31-.69-13.77-7.34.48-5.89,10.15-10.69,6.77-.67h6c-.46-3.93,0-6.84,3.64-8.91,3.51-.6,6.43,11.28,8.35,13.49l5-.59c1.26-1.8-10.49-19.16-10.84-22.67-.26-2.65,7.96-6.2,10.37-7,4.12,3.31,6.85,9.63,1.49,13.19,2.69,3.47,6.89,4.4,11.04,3.05,2.36-1.58-.57-5.05.37-6.56.25-.41,7.74-4.78,8.3-4.86,4.74-.72,4.46,10.6,11.28,6.87,1.28-1.75-11.14-18.7-12.61-21.94l3.6-6.05ZM578,616c-.84-5.43-13.61-3.34-17.03-.53-2.44,4.11,1.09.53,1.53.53h15.5ZM248.26,624.25c-3.1,3.09,1.98,8.62,5.32,5.83,4.57-3.81-1.96-9.18-5.32-5.83ZM339.01,625.01l-3.59,8.86-61.42-10.86c-4.37,4.25,16.08,7.52,17.5,7.98s1.54-.8,1.52,1.53c-.06,6.49-6.53.97-10.68.84-15.57-.51-5.89,20.45,6.65,16.66l-.67,5.56,3.19,2.41c2.23.37,1.13-.42,1.47-1.45,2.44-7.33,1.35-12.81,11.37-13.45,5.62,3.54-3.62,9.36-3.31,11.3.21,1.31,2.86,2.94,4.36,2.7.36-.06,3.95-5.39,4.16-6.02,2.47-7.51-5.4-13.91-12.57-11.05v-7s23.94,3.05,23.94,3.05l.12,9.34c-10.88,2.12-5.27,11.32,2.94,10.62v-4.02c20.99-2.2,8.9,5.6,12.15,10.86l4.84,1.16,2.05-25.95c7.62-.18,17.36-2.05,12.79,8.8-1.29.78-4.83-.89-5.74,1.79-2.16,6.37,10.77,15.12,15.41,18.32l2.49-4.94c-4.58-.79-8.74-3.21-11.98-6.51,4.09-5.76,10.35-1.64,16.34-2.36,3.1,1,.97,8.16,1.77,10.74l4.86,1.12-1-27h6c-1.05-6.81-8.73-3.03-13.45-2.95-9.67.16-19.23-1.12-28.89-1l-2.65-9.04ZM242.09,640.09c-.86,1.24.3,4.69,1.9,5.41,13.36,2.07,1.85-10.78-1.9-5.41ZM380.69,678.69c7.03-5.08-3.37-15.64-10.7-10.68.79,6.76,3,3.16,6.97,2.39,5.14-1,3.51,5.91-2.6,6.28-7.09.43-9.6-4.89-13.86-7.69-1.53-1-2.54-.34-2.48.5.25,3.63,16.49,13.65,22.67,9.19Z"/>
  <path class="cls-1" d="M559.42,158.58c142.1,154.58,55.88,407.11-150.23,442.11C197.23,636.68,29.99,419.54,122.82,224.32,203.7,54.25,431.49,19.42,559.42,158.58ZM534.42,532.42c150.79-134.54,98.16-383.04-94.9-441.44C247.96,33.04,67.19,202.34,111.31,397.19c42.84,189.18,277.47,265.16,423.1,135.23Z"/>
  <path class="cls-1" d="M548.88,597.88c-5.18,1.17-7.45,7.35-11.71,1.45-5.32-7.37,1.48-8.16,7.2-11.2,2.11.41,5.7,7.89,4.51,9.75Z"/>
  <path class="cls-1" d="M417.92,643.07c3.91,6.77-14.87,14-11.75,3.63,1.04-3.45,8.57-4.9,11.75-3.63Z"/>
  <path class="cls-1" d="M469.79,622.22c2.77,1.62,3.02,9.34-3.2,8.76-9.46-.88-2.18-11.92,3.2-8.76Z"/>
  <path class="cls-1" d="M373.01,637.99c1.92,13.34.33,11.13-12.01,11.01l.94-10.57,11.07-.44Z"/>
  <path class="cls-1" d="M337,648.01l-11.59-1.95.59-9.06c2.62.42,10.13-1.01,11.59.96l-.58,10.05Z"/>
  <path class="cls-1" d="M281.71,638.21c11-3.23,13.67,6.57,3.68,7.7-9,1.02-9.12-6.1-3.68-7.7Z"/>
  <path class="cls-1" d="M174.01,595c5.38,1.01,11.52,2.81,10-5,.7-.78,8.29,2.03,8,4.45-2.74,13.35-17.02,14.3-18,.55Z"/>
  <path class="cls-1" d="M534.42,532.42c-145.63,129.93-380.27,53.94-423.1-135.23C67.19,202.34,247.96,33.04,439.52,90.98c193.06,58.39,245.69,306.9,94.9,441.44ZM506.59,192.45c-108.05-105.25-288.25-64.6-338.6,77.03-56.72,159.55,93.08,315.68,254.78,265.78,146.84-45.31,194.65-234.86,83.82-342.82ZM222.66,523.65c9.31-9.41-5.48-24.74-15.22-14.72-10.06,10.35,5.58,24.45,15.22,14.72ZM503.71,515.21c-11.82,2.68-9.98,23.72,5.55,20.56,12.91-2.62,8.64-23.78-5.55-20.56Z"/>
  <path class="cls-1" d="M508.38,205.63c131.85,146.26-5.21,372.84-196.6,325.09-130.43-32.54-190.16-187.87-116.2-300.63,70.93-108.12,225.83-120.94,312.8-24.46ZM366,159c0-2.39-22.56-2.21-25.49-1.99-5.61.42-25.24,3.26-27.09,8.94.04,10.02,5.09,20.29,6.51,30.43l-28.85,11.55c-4.1-6.58-9.11-18.98-14.23-24.29-4.7-4.88-8.24-2.13-13.16.55-5.2,2.84-11.72,7.84-16.22,11.78-3.53,3.08-15.01,13.76-14.32,18.3.58,3.77,16.48,17.6,20.39,20.71l-.04,2.99-19.1,24.97c-2.62.61-23.59-15.86-27.91-15.87-8.56-.02-20.29,30.32-22,37.91-.85,3.76-2.47,8.74,1.54,11.48,6.01,4.1,23.48,6.31,30.97,9.54l-3.44,28.06c-1.86,2.66-27.66-.43-32.87,1.13s-4.01,21.11-3.56,26.18c.39,4.47,4.1,23.4,7.29,25.7,5,3.62,27.05-6.02,33.94-4.95l10.56,26.23-25.21,14.6c-7.02,5.68,4.81,20.68,8.87,25.97s16.26,20.91,23.41,17.56c4.46-2.09,13.03-14.16,17.99-18,.97-.75,2.71-2.62,4.04-2.02l25.89,21.04c0,1.35-13.12,18.16-14.37,21.55-3.13,8.45,7.33,13.1,13.44,16.48s29.12,14.7,34.09,9.04c3.21-3.65,7.61-27.2,10.88-29.1l28.56,3.53,2.5,1.5v30.5c2.07.41,3.17,1.76,5.45,2.05,9.35,1.2,36.06-.16,43.88-5.22,2.68-1.74,3.82-2.89,3.72-6.27-.15-5.14-7.71-25.62-5.91-28.43l28.82-11.1c3.75,7.37,8.21,19.03,13.16,25.35,3.96,5.06,16.22-2.58,20.58-5.19,5.59-3.35,23.11-15.87,24.14-21.95.28-1.68.08-2.46-.58-3.98-1.73-3.97-21.24-21.21-21.24-22.76,4.37-2.22,17.7-23.8,19.69-24.37,1.15-.33,2.22-.22,3.24.39,5.24,2.45,17.95,12.68,22.79,13.34,6.33.87,16.56-21.38,18.74-26.88s6.62-16.39,3.42-21.38c-2.12-3.31-24.73-7.81-29.86-9.64l3.96-29.96,29.29-1.21c1.03-.29,2.75-1.86,3.18-2.82,2.77-6.27.03-27.92-1.77-35.17-1.15-4.64-3.96-15.56-10.01-15.52-4.18.03-24.93,8.77-26.74,7.32l-11.56-27.58.58-2.51c4.65-3.57,21.3-10.06,24.08-13.94,4.25-5.91-7.65-22.27-11.65-27.49-3.37-4.4-13.96-17.5-19.69-15.94l-23.09,20.79-22.18-16.94-.04-3.01c2.32-6.9,12.17-19.48,13.39-25.73,1.49-7.6-8.73-11.49-14.46-14.11-6.98-3.19-28.23-11.41-34.7-7.23l-7.69,31.06c-8.19-1-16.24-3.12-24.47-3.97-3.21-.33-7.24,1.16-9.49-1.51v-30.5Z"/>
  <path class="cls-1" d="M367,485.5l-43.49-6.54c-1.28,0-1.76.7-2.42,1.63-2.7,3.83-8.58,25.2-10.25,26.24-6.5,1.88-33.9-10.21-33.86-16.32,1.13-4.11,16.81-23.07,15-25.46-13.92-6.17-25.49-17.48-36.47-27.87l-23.03,20.59c-4.46-3.52-9.33-7.41-13-11.75-2.98-3.54-12.18-15.45-8.5-19.53l26.09-14.08c-5.86-12.79-11.92-25.51-15.19-39.29l-32.8,5.79c-3.13-10.15-6.2-20.61-5.09-31.4s6.35-5.68,13.46-5.46,13.72-.24,20.55-.04c.3-13.63,1.42-27.51,5.68-40.53-.35-3.41-26.93-8.72-30.81-11.93-2.64-3.28,8.64-31.84,14.77-34.4l26.08,15.7,2.77-.85c4.13-7.58,9.22-14.7,14.53-21.48,1.73-2.21,11.64-12.37,11.87-13.23.37-1.39-.16-1.84-.83-2.84-2.43-3.61-18.59-16.99-18.95-19.1,1.74-6.02,23.93-25.97,28.93-23.85l16.13,25.31,1.32.28c12.4-6.05,24.96-12.03,38.48-15.15l-7.03-30.28c11.25-6.24,24.65-5.96,37.06-4.68l.99,31.01c15.73-1.61,30.84,3.08,46.06,4.58l7.08-29.45c5.46-3.5,31.16,7.49,35.63,13.35.13,1.49-10.85,21.55-12.09,25.7-.56,1.88-1.42,3.83.31,5.33,11.28,6.31,21.29,14.58,30.66,23.39,4.07.7,18.22-18.67,22.07-19.75,3.37-.94,10.49,7.12,12.7,9.94,1.94,2.48,11.07,17.37,10.5,19.27l-25,15.24c5.69,13.64,14.08,26.35,16.12,41.36,5.31,2.1,26.86-8.68,29.83-6.83,1.27,3.26,2.7,6.48,3.62,9.88.68,2.51,2.51,9.42,2.51,11.49v15.5c-9.01,2.1-19.47.41-28.51,1.99-1.14.2-2.02.36-2.35,1.65.46,14.05-3.2,27.5-5.02,41.24,4.3,2.57,26.08,6.18,27.98,8.52,2.3,2.83-1.23,12.13-2.62,15.58-1.32,3.27-9.82,19.19-12.81,18.88l-25.07-13.79c-4.96,7.08-9.3,14.58-14.63,21.4-1.73,2.21-11.6,12.18-11.87,13.23-.51,1.95,2.28,4.55,3.55,6.18,3.49,4.47,15.15,13.66,16.91,17.14,1.58,3.12-10.41,12.96-13.23,14.81-1.91,1.25-15.63,8.23-16.7,8.02l-14.73-25.75c-.64-.56-2.97,0-3.95.35-5.55,1.97-13.41,7.44-19.97,10.03-5.79,2.29-11.92,3.86-17.87,5.63l6.81,30.78c-11.78,5.3-25.32,5.39-37.92,4.1v-29.5ZM390,269.5c.9,5.4-.66,12.84,0,18.5,4.66-1.52,7.19-9.37,8.75-13.75,6.19-17.42,8.61-49.32-8.44-61.05-17.57-12.09-42.88-8.16-55.13,9.49-8.11,11.69-6.63,31-2.38,44.02,1.82,5.6,12.08,22.1,18.79,14.38,4.14-4.77,1.42-14.39,10.48-20.51s26-2.72,27.93,8.93ZM401.65,373.65c10.76-10.06,24.01-34.15,21.3-49.1-1.17-6.47-8.33-3.8-5.17-14.27,2.88-9.52,10.61-9.19,17.15-13.84,9.35-6.64,14.73-18.8,11-29.88-2.71-8.05-21.69-33.53-29.65-35.35-1.87-.43-4.3-.71-5.81.77-3.28,4.62-.53,9.81-.43,14.48.61,28.76-4.74,35.45-24.53,54.58-18.11,17.51-24.64,19.41-31.07,45.9-.85,3.52.61,10.6-4.8,9.10-.40-.11-3.77-6.37-4.01-7.26-2.03-7.74,7.9-10.77,8.94-14.74.47-1.81-.77-4.36-.68-6.56.37-9.56,21.38-13.68,7.05-23.92-2.53-1.81-6.17-2.56-8.45-4.55-5.75-4.99-20.18-23.28-22.53-30.47-1.39-4.23-2.31-23.46-8.38-21.52-3.18,1.01-8.07,25.44-8.44,29.59-.65,7.2.91,15.71,5.04,21.72,2.44,3.55,12.35,9.91,12.74,11.32,1.05,3.84-5.55,2.45-4.85,9.73.66,6.83,7.51,12.12,8.74,16.33,3.04,10.46-4.07,25.87,7.17,35.83,5.03,4.46,5.77,2.74,8.96-.91,2.93-3.36,6.1,6.82,8.59,9.36,11.42,11.66,31.91,3.23,42.14-6.34ZM328,353.5v-16c0-3.66-4.31-17.1-5.97-21.03-6.11-14.49-21.99-26.09-16.54-43.49,2.71-8.66,19.13-29.39-.98-29.06-20.19.33-52.82,29.16-41.25,50.32,4.34,7.94,15.65,15.86,23.23,20.77,11.49,7.46,24.49,10.32,30.4,23.6,1.9,4.27,3.33,15.78,8.78,16.25l2.35-1.38ZM367.25,274.74c5.52,5.21,14.31-3,9.81-9.32-5.31-7.47-16.69,2.83-9.81,9.32ZM357.52,275c-4.21,6.51-.74,20.41,5.53,24.46,13.52,8.72,22.69-12.38,19.47-23.47-1.19-2.15-5.31,3.59-6.58,4.45-10.09,6.83-14.14-6.28-18.42-5.43ZM467.65,319.35c-.78-.93-2.49-1.42-3.65-2.84-8.72-10.73,2.78-19.15-1.94-27.07-3.78-6.34-13.54.49-17.56,3.56-4.74,3.63-5.41,4.49-11.03,7.97-7.6,4.7-9.61,9.5-8.38,18.44,1.58,11.6,4.12,12.98,1.96,26.14-1.33,8.1-.15,8.05-6.02,14.97-5.53,6.52-15.11,10.83-19.48,17.52-6.56,10.05,3.59,12.18,11.99,12.01,28.87-.57,74.4-13.97,67.42-51.51-.63-3.4-10.52-15.88-13.3-19.2ZM276.77,315.19c-9.64,1.4-11.38,14.58-16.21,19.86-2.1,2.3-7.17,4.55-10.02,6.98-7.23,6.13-12.96,14.68-5.54,23.48,4.87,5.78,9.26,3.66,15.28,4.72,14.18,2.5,19.26,24.47,33.5,29.5,3.34,1.18,8.81,2.09,11.16-1.31,2.63-3.82-1.87-16.93-2.63-22.21-2.12-14.81-3-53.72-19-59.99-2.36-.93-3.91-1.4-6.53-1.02ZM319.35,353.65c-3.27-3.18-12.78-12.49-14.25-2.1-2.58,18.25,14.33,33.35,18.62,50.23,3.79,14.89-4.23,32.93,13.92,41.08,11.28,5.07,48.14,4.75,58.3-2.44s-4.25-10.74.99-18.01c1.81-2.51,18.53-5.95,23.77-9.23,5.85-3.66,13-12.86,6.28-18.66-6.17-5.33-10.81,1.32-16.75,3.19-4.74,1.49-10.2,2.07-14.93.49-3.48-1.16-5.86-6.08-10-7-8.07-1.79-15.54.75-25.16-2.84-18.83-7.03-27.89-22.17-40.78-34.72ZM274.71,397.3c-1.99-1.69-5.77-1.95-5.73,1.18.03,2.39,11.11,15.86,13.51,18.54,13.97,15.58,34.97,31.38,54.98,38.02,3.71,1.23,13.85,2.61,15.96,4.04,4.5,3.04-1.08,14.07,6.1,9.95l-.46-13.58c-27.17-4.96-55.39-20.62-73.03-41.97-2.91-3.52-9.11-14.29-11.32-16.17ZM367,456v14h4c-2.91-14.5,9.28-11.95,19.24-15.27,18.21-6.07,39.84-22.12,52.74-36.26,2.78-3.04,11.39-13.03,12.89-16.11,2.07-4.27,2.39-8.6-3.43-5.43-18.88,30.82-50.12,51.79-85.43,59.07Z"/>
  <path class="cls-1" d="M402.99,323.01c.32,2.39-.3,3.97-1.54,5.95-1.81,2.88-18.89,21.12-21.2,21.8-1.4.41-2.83.3-4.25.25.12-1.76-.32-3.79.02-5.48.91-4.51,16.37-15.45,19.47-20.53l7.5-1.99Z"/>
</svg>
